<?xml version="1.0" encoding="UTF-8" standalone="no"?>
<!-- Created with Inkscape (http://www.inkscape.org/) -->

<svg
   xmlns:dc="http://purl.org/dc/elements/1.1/"
   xmlns:cc="http://creativecommons.org/ns#"
   xmlns:rdf="http://www.w3.org/1999/02/22-rdf-syntax-ns#"
   xmlns:svg="http://www.w3.org/2000/svg"
   xmlns="http://www.w3.org/2000/svg"
   xmlns:sodipodi="http://sodipodi.sourceforge.net/DTD/sodipodi-0.dtd"
   xmlns:inkscape="http://www.inkscape.org/namespaces/inkscape"
   width="61.988094mm"
   height="61.988094mm"
   viewBox="0 0 61.988094 61.988094"
   version="1.1"
   id="svg8"
   inkscape:version="0.92.5 (2060ec1f9f, 2020-04-08)"
   sodipodi:docname="logo-ai.svg">
  <defs
     id="defs2" />
  <sodipodi:namedview
     id="base"
     pagecolor="#ffffff"
     bordercolor="#666666"
     borderopacity="1.0"
     inkscape:pageopacity="0.0"
     inkscape:pageshadow="2"
     inkscape:zoom="0.49497475"
     inkscape:cx="-282.34393"
     inkscape:cy="203.15803"
     inkscape:document-units="mm"
     inkscape:current-layer="layer1"
     showgrid="false"
     fit-margin-top="0"
     fit-margin-left="0"
     fit-margin-right="0"
     fit-margin-bottom="0"
     inkscape:window-width="1920"
     inkscape:window-height="1016"
     inkscape:window-x="0"
     inkscape:window-y="27"
     inkscape:window-maximized="1" />
  <metadata
     id="metadata5">
    <rdf:RDF>
      <cc:Work
         rdf:about="">
        <dc:format>image/svg+xml</dc:format>
        <dc:type
           rdf:resource="http://purl.org/dc/dcmitype/StillImage" />
        <dc:title></dc:title>
      </cc:Work>
    </rdf:RDF>
  </metadata>
  <g
     inkscape:label="Camada 1"
     inkscape:groupmode="layer"
     id="layer1"
     transform="translate(-8.3154774,63.589285)">
    <path
       style="opacity:1;fill:#f0680a;fill-opacity:1;stroke:none;stroke-width:0.3616854;stroke-linecap:butt;stroke-linejoin:miter;stroke-miterlimit:4;stroke-dasharray:none;stroke-dashoffset:0;stroke-opacity:1;paint-order:stroke markers fill"
       d="M 70.303572,-32.595238 A 30.994047,30.994047 0 0 1 39.309525,-1.6011906 30.994047,30.994047 0 0 1 8.3154774,-32.595238 30.994047,30.994047 0 0 1 39.309525,-63.589285 30.994047,30.994047 0 0 1 70.303572,-32.595238 Z"
       id="path830"
       inkscape:export-xdpi="90"
       inkscape:export-ydpi="90"
       inkscape:connector-curvature="0" />
    <path
       style="fill:#ffffff;fill-opacity:1;stroke:none;stroke-width:0.66220194px;stroke-linecap:butt;stroke-linejoin:miter;stroke-opacity:1"
       d="m 12.628666,-41.774595 c 0,0 12.287284,-2.810453 28.027545,-5.406198 15.740261,-2.595745 19.768856,-2.722167 19.768856,-2.722167 0,0 -1.651409,5.611383 -10.994778,18.320535 -9.343369,12.709152 -21.011176,24.2584161 -21.011176,24.2584161 0,0 6.98376,-14.6244551 8.962269,-19.7217561 1.978509,-5.097301 3.44164,-10.599486 3.44164,-10.599486 0,0 -6.917102,-1.766986 -11.603751,-2.622519 -4.686649,-0.855532 -16.590605,-1.506825 -16.590605,-1.506825 z"
       id="path837"
       inkscape:connector-curvature="0"
       sodipodi:nodetypes="czczczczc"
       inkscape:export-xdpi="90"
       inkscape:export-ydpi="90" />
  </g>
</svg>
