<?xml version="1.0" encoding="UTF-8" standalone="no"?>
<!DOCTYPE svg PUBLIC "-//W3C//DTD SVG 1.1//EN"
 "http://www.w3.org/Graphics/SVG/1.1/DTD/svg11.dtd">
<!-- Generated by graphviz version 2.50.0 (0)
 -->
<!-- Pages: 1 -->
<svg width="1617pt" height="790pt"
 viewBox="0.00 0.00 1617.00 790.00" xmlns="http://www.w3.org/2000/svg" xmlns:xlink="http://www.w3.org/1999/xlink">
<g id="graph0" class="graph" transform="scale(1 1) rotate(0) translate(4 786)">
<polygon fill="white" stroke="transparent" points="-4,4 -4,-786 1613,-786 1613,4 -4,4"/>
<!-- analysis -->
<g id="node1" class="node">
<title>analysis</title>
<polygon fill="none" stroke="black" points="1324.5,-431 1324.5,-459 1601.5,-459 1601.5,-431 1324.5,-431"/>
<text text-anchor="start" x="1431" y="-442.2" font-family="Helvetica,sans-Serif" font-weight="bold" font-size="16.00">analysis</text>
<polygon fill="none" stroke="black" points="1324.5,-406 1324.5,-431 1601.5,-431 1601.5,-406 1324.5,-406"/>
<text text-anchor="start" x="1329.5" y="-415.8" font-family="Helvetica,sans-Serif" text-decoration="underline" font-size="14.00">id</text>
<text text-anchor="start" x="1340.5" y="-415.8" font-family="Helvetica,sans-Serif" font-size="14.00"> [INTEGER]</text>
<text text-anchor="start" x="1413.5" y="-415.8" font-family="Helvetica,sans-Serif" font-size="14.00"> NOT NULL</text>
<polygon fill="none" stroke="black" points="1324.5,-381 1324.5,-406 1601.5,-406 1601.5,-381 1324.5,-381"/>
<text text-anchor="start" x="1329.5" y="-390.8" font-family="Helvetica,sans-Serif" font-size="14.00">analysis_function_id</text>
<text text-anchor="start" x="1451.5" y="-390.8" font-family="Helvetica,sans-Serif" font-size="14.00"> [INTEGER]</text>
<text text-anchor="start" x="1524.5" y="-390.8" font-family="Helvetica,sans-Serif" font-size="14.00"> NOT NULL</text>
<polygon fill="none" stroke="black" points="1324.5,-356 1324.5,-381 1601.5,-381 1601.5,-356 1324.5,-356"/>
<text text-anchor="start" x="1329.5" y="-365.8" font-family="Helvetica,sans-Serif" font-size="14.00">attributes</text>
<text text-anchor="start" x="1385.5" y="-365.8" font-family="Helvetica,sans-Serif" font-size="14.00"> [JSON]</text>
<polygon fill="none" stroke="black" points="1324.5,-331 1324.5,-356 1601.5,-356 1601.5,-331 1324.5,-331"/>
<text text-anchor="start" x="1329.5" y="-340.8" font-family="Helvetica,sans-Serif" font-size="14.00">device_data_id</text>
<text text-anchor="start" x="1420.5" y="-340.8" font-family="Helvetica,sans-Serif" font-size="14.00"> [INTEGER]</text>
<polygon fill="none" stroke="black" points="1324.5,-306 1324.5,-331 1601.5,-331 1601.5,-306 1324.5,-306"/>
<text text-anchor="start" x="1329.5" y="-315.8" font-family="Helvetica,sans-Serif" font-size="14.00">die_id</text>
<text text-anchor="start" x="1366.5" y="-315.8" font-family="Helvetica,sans-Serif" font-size="14.00"> [INTEGER]</text>
<polygon fill="none" stroke="black" points="1324.5,-281 1324.5,-306 1601.5,-306 1601.5,-281 1324.5,-281"/>
<text text-anchor="start" x="1329.5" y="-290.8" font-family="Helvetica,sans-Serif" font-size="14.00">input_hash</text>
<text text-anchor="start" x="1396.5" y="-290.8" font-family="Helvetica,sans-Serif" font-size="14.00"> [VARCHAR]</text>
<text text-anchor="start" x="1473.5" y="-290.8" font-family="Helvetica,sans-Serif" font-size="14.00"> NOT NULL</text>
<polygon fill="none" stroke="black" points="1324.5,-256 1324.5,-281 1601.5,-281 1601.5,-256 1324.5,-256"/>
<text text-anchor="start" x="1329.5" y="-265.8" font-family="Helvetica,sans-Serif" font-size="14.00">is_bad</text>
<text text-anchor="start" x="1369.5" y="-265.8" font-family="Helvetica,sans-Serif" font-size="14.00"> [BOOLEAN]</text>
<text text-anchor="start" x="1448.5" y="-265.8" font-family="Helvetica,sans-Serif" font-size="14.00"> NOT NULL</text>
<polygon fill="none" stroke="black" points="1324.5,-231 1324.5,-256 1601.5,-256 1601.5,-231 1324.5,-231"/>
<text text-anchor="start" x="1329.5" y="-240.8" font-family="Helvetica,sans-Serif" font-size="14.00">is_latest</text>
<text text-anchor="start" x="1379.5" y="-240.8" font-family="Helvetica,sans-Serif" font-size="14.00"> [BOOLEAN]</text>
<text text-anchor="start" x="1458.5" y="-240.8" font-family="Helvetica,sans-Serif" font-size="14.00"> NOT NULL</text>
<polygon fill="none" stroke="black" points="1324.5,-206 1324.5,-231 1601.5,-231 1601.5,-206 1324.5,-206"/>
<text text-anchor="start" x="1329.5" y="-215.8" font-family="Helvetica,sans-Serif" font-size="14.00">output</text>
<text text-anchor="start" x="1367.5" y="-215.8" font-family="Helvetica,sans-Serif" font-size="14.00"> [JSON]</text>
<polygon fill="none" stroke="black" points="1324.5,-181 1324.5,-206 1601.5,-206 1601.5,-181 1324.5,-181"/>
<text text-anchor="start" x="1329.5" y="-190.8" font-family="Helvetica,sans-Serif" font-size="14.00">parameters</text>
<text text-anchor="start" x="1399.5" y="-190.8" font-family="Helvetica,sans-Serif" font-size="14.00"> [JSON]</text>
<polygon fill="none" stroke="black" points="1324.5,-156 1324.5,-181 1601.5,-181 1601.5,-156 1324.5,-156"/>
<text text-anchor="start" x="1329.5" y="-165.8" font-family="Helvetica,sans-Serif" font-size="14.00">summary_plot</text>
<text text-anchor="start" x="1416.5" y="-165.8" font-family="Helvetica,sans-Serif" font-size="14.00"> [VARCHAR]</text>
<text text-anchor="start" x="1493.5" y="-165.8" font-family="Helvetica,sans-Serif" font-size="14.00"> NOT NULL</text>
<polygon fill="none" stroke="black" points="1324.5,-131 1324.5,-156 1601.5,-156 1601.5,-131 1324.5,-131"/>
<text text-anchor="start" x="1329.5" y="-140.8" font-family="Helvetica,sans-Serif" font-size="14.00">timestamp</text>
<text text-anchor="start" x="1393.5" y="-140.8" font-family="Helvetica,sans-Serif" font-size="14.00"> [DATETIME]</text>
<text text-anchor="start" x="1473.5" y="-140.8" font-family="Helvetica,sans-Serif" font-size="14.00"> NOT NULL</text>
<polygon fill="none" stroke="black" points="1324.5,-106 1324.5,-131 1601.5,-131 1601.5,-106 1324.5,-106"/>
<text text-anchor="start" x="1329.5" y="-115.8" font-family="Helvetica,sans-Serif" font-size="14.00">wafer_id</text>
<text text-anchor="start" x="1381.5" y="-115.8" font-family="Helvetica,sans-Serif" font-size="14.00"> [INTEGER]</text>
</g>
<!-- device_data -->
<g id="node2" class="node">
<title>device_data</title>
<polygon fill="none" stroke="black" points="973,-584 973,-612 1215,-612 1215,-584 973,-584"/>
<text text-anchor="start" x="1047.5" y="-595.2" font-family="Helvetica,sans-Serif" font-weight="bold" font-size="16.00">device_data</text>
<polygon fill="none" stroke="black" points="973,-559 973,-584 1215,-584 1215,-559 973,-559"/>
<text text-anchor="start" x="978" y="-568.8" font-family="Helvetica,sans-Serif" text-decoration="underline" font-size="14.00">id</text>
<text text-anchor="start" x="989" y="-568.8" font-family="Helvetica,sans-Serif" font-size="14.00"> [INTEGER]</text>
<text text-anchor="start" x="1062" y="-568.8" font-family="Helvetica,sans-Serif" font-size="14.00"> NOT NULL</text>
<polygon fill="none" stroke="black" points="973,-534 973,-559 1215,-559 1215,-534 973,-534"/>
<text text-anchor="start" x="978" y="-543.8" font-family="Helvetica,sans-Serif" font-size="14.00">attributes</text>
<text text-anchor="start" x="1034" y="-543.8" font-family="Helvetica,sans-Serif" font-size="14.00"> [JSON]</text>
<polygon fill="none" stroke="black" points="973,-509 973,-534 1215,-534 1215,-509 973,-509"/>
<text text-anchor="start" x="978" y="-518.8" font-family="Helvetica,sans-Serif" font-size="14.00">data_type</text>
<text text-anchor="start" x="1038" y="-518.8" font-family="Helvetica,sans-Serif" font-size="14.00"> [VARCHAR(11)]</text>
<text text-anchor="start" x="1138" y="-518.8" font-family="Helvetica,sans-Serif" font-size="14.00"> NOT NULL</text>
<polygon fill="none" stroke="black" points="973,-484 973,-509 1215,-509 1215,-484 973,-484"/>
<text text-anchor="start" x="978" y="-493.8" font-family="Helvetica,sans-Serif" font-size="14.00">device_id</text>
<text text-anchor="start" x="1036" y="-493.8" font-family="Helvetica,sans-Serif" font-size="14.00"> [INTEGER]</text>
<polygon fill="none" stroke="black" points="973,-459 973,-484 1215,-484 1215,-459 973,-459"/>
<text text-anchor="start" x="978" y="-468.8" font-family="Helvetica,sans-Serif" font-size="14.00">die_id</text>
<text text-anchor="start" x="1015" y="-468.8" font-family="Helvetica,sans-Serif" font-size="14.00"> [INTEGER]</text>
<polygon fill="none" stroke="black" points="973,-434 973,-459 1215,-459 1215,-434 973,-434"/>
<text text-anchor="start" x="978" y="-443.8" font-family="Helvetica,sans-Serif" font-size="14.00">is_bad</text>
<text text-anchor="start" x="1018" y="-443.8" font-family="Helvetica,sans-Serif" font-size="14.00"> [BOOLEAN]</text>
<text text-anchor="start" x="1097" y="-443.8" font-family="Helvetica,sans-Serif" font-size="14.00"> NOT NULL</text>
<polygon fill="none" stroke="black" points="973,-409 973,-434 1215,-434 1215,-409 973,-409"/>
<text text-anchor="start" x="978" y="-418.8" font-family="Helvetica,sans-Serif" font-size="14.00">path</text>
<text text-anchor="start" x="1005" y="-418.8" font-family="Helvetica,sans-Serif" font-size="14.00"> [VARCHAR]</text>
<text text-anchor="start" x="1082" y="-418.8" font-family="Helvetica,sans-Serif" font-size="14.00"> NOT NULL</text>
<polygon fill="none" stroke="black" points="973,-384 973,-409 1215,-409 1215,-384 973,-384"/>
<text text-anchor="start" x="978" y="-393.8" font-family="Helvetica,sans-Serif" font-size="14.00">plotting_kwargs</text>
<text text-anchor="start" x="1072" y="-393.8" font-family="Helvetica,sans-Serif" font-size="14.00"> [JSON]</text>
<polygon fill="none" stroke="black" points="973,-359 973,-384 1215,-384 1215,-359 973,-359"/>
<text text-anchor="start" x="978" y="-368.8" font-family="Helvetica,sans-Serif" font-size="14.00">thumbnail_path</text>
<text text-anchor="start" x="1072" y="-368.8" font-family="Helvetica,sans-Serif" font-size="14.00"> [VARCHAR]</text>
<polygon fill="none" stroke="black" points="973,-334 973,-359 1215,-359 1215,-334 973,-334"/>
<text text-anchor="start" x="978" y="-343.8" font-family="Helvetica,sans-Serif" font-size="14.00">timestamp</text>
<text text-anchor="start" x="1042" y="-343.8" font-family="Helvetica,sans-Serif" font-size="14.00"> [DATETIME]</text>
<text text-anchor="start" x="1122" y="-343.8" font-family="Helvetica,sans-Serif" font-size="14.00"> NOT NULL</text>
</g>
<!-- device_data&#45;&#45;analysis -->
<g id="edge1" class="edge">
<title>device_data&#45;&#45;analysis</title>
<path fill="none" stroke="#7f7f7f" stroke-dasharray="5,2" d="M1223.18,-406.55C1253.12,-391.03 1285.21,-374.39 1315.84,-358.52"/>
<text text-anchor="start" x="1290.84" y="-347.32" font-family="Times New Roman,serif" font-size="14.00">0..N</text>
<text text-anchor="start" x="1223.18" y="-395.35" font-family="Times New Roman,serif" font-size="14.00">{0,1}</text>
</g>
<!-- device -->
<g id="node3" class="node">
<title>device</title>
<polygon fill="none" stroke="black" points="638,-750 638,-778 864,-778 864,-750 638,-750"/>
<text text-anchor="start" x="725.5" y="-761.2" font-family="Helvetica,sans-Serif" font-weight="bold" font-size="16.00">device</text>
<polygon fill="none" stroke="black" points="638,-725 638,-750 864,-750 864,-725 638,-725"/>
<text text-anchor="start" x="643" y="-734.8" font-family="Helvetica,sans-Serif" text-decoration="underline" font-size="14.00">id</text>
<text text-anchor="start" x="654" y="-734.8" font-family="Helvetica,sans-Serif" font-size="14.00"> [INTEGER]</text>
<text text-anchor="start" x="727" y="-734.8" font-family="Helvetica,sans-Serif" font-size="14.00"> NOT NULL</text>
<polygon fill="none" stroke="black" points="638,-700 638,-725 864,-725 864,-700 638,-700"/>
<text text-anchor="start" x="643" y="-709.8" font-family="Helvetica,sans-Serif" font-size="14.00">angle</text>
<text text-anchor="start" x="677" y="-709.8" font-family="Helvetica,sans-Serif" font-size="14.00"> [FLOAT]</text>
<polygon fill="none" stroke="black" points="638,-675 638,-700 864,-700 864,-675 638,-675"/>
<text text-anchor="start" x="643" y="-684.8" font-family="Helvetica,sans-Serif" font-size="14.00">attributes</text>
<text text-anchor="start" x="699" y="-684.8" font-family="Helvetica,sans-Serif" font-size="14.00"> [JSON]</text>
<polygon fill="none" stroke="black" points="638,-650 638,-675 864,-675 864,-650 638,-650"/>
<text text-anchor="start" x="643" y="-659.8" font-family="Helvetica,sans-Serif" font-size="14.00">cell_id</text>
<text text-anchor="start" x="682" y="-659.8" font-family="Helvetica,sans-Serif" font-size="14.00"> [INTEGER]</text>
<text text-anchor="start" x="755" y="-659.8" font-family="Helvetica,sans-Serif" font-size="14.00"> NOT NULL</text>
<polygon fill="none" stroke="black" points="638,-625 638,-650 864,-650 864,-625 638,-625"/>
<text text-anchor="start" x="643" y="-634.8" font-family="Helvetica,sans-Serif" font-size="14.00">mirror</text>
<text text-anchor="start" x="680" y="-634.8" font-family="Helvetica,sans-Serif" font-size="14.00"> [BOOLEAN]</text>
<polygon fill="none" stroke="black" points="638,-600 638,-625 864,-625 864,-600 638,-600"/>
<text text-anchor="start" x="643" y="-609.8" font-family="Helvetica,sans-Serif" font-size="14.00">name</text>
<text text-anchor="start" x="678" y="-609.8" font-family="Helvetica,sans-Serif" font-size="14.00"> [VARCHAR]</text>
<text text-anchor="start" x="755" y="-609.8" font-family="Helvetica,sans-Serif" font-size="14.00"> NOT NULL</text>
<polygon fill="none" stroke="black" points="638,-575 638,-600 864,-600 864,-575 638,-575"/>
<text text-anchor="start" x="643" y="-584.8" font-family="Helvetica,sans-Serif" font-size="14.00">parent_cell_id</text>
<text text-anchor="start" x="728" y="-584.8" font-family="Helvetica,sans-Serif" font-size="14.00"> [INTEGER]</text>
<polygon fill="none" stroke="black" points="638,-550 638,-575 864,-575 864,-550 638,-550"/>
<text text-anchor="start" x="643" y="-559.8" font-family="Helvetica,sans-Serif" font-size="14.00">timestamp</text>
<text text-anchor="start" x="707" y="-559.8" font-family="Helvetica,sans-Serif" font-size="14.00"> [DATETIME]</text>
<text text-anchor="start" x="787" y="-559.8" font-family="Helvetica,sans-Serif" font-size="14.00"> NOT NULL</text>
<polygon fill="none" stroke="black" points="638,-525 638,-550 864,-550 864,-525 638,-525"/>
<text text-anchor="start" x="643" y="-534.8" font-family="Helvetica,sans-Serif" font-size="14.00">x</text>
<text text-anchor="start" x="650" y="-534.8" font-family="Helvetica,sans-Serif" font-size="14.00"> [FLOAT]</text>
<polygon fill="none" stroke="black" points="638,-500 638,-525 864,-525 864,-500 638,-500"/>
<text text-anchor="start" x="643" y="-509.8" font-family="Helvetica,sans-Serif" font-size="14.00">y</text>
<text text-anchor="start" x="650" y="-509.8" font-family="Helvetica,sans-Serif" font-size="14.00"> [FLOAT]</text>
</g>
<!-- device&#45;&#45;device_data -->
<g id="edge2" class="edge">
<title>device&#45;&#45;device_data</title>
<path fill="none" stroke="#7f7f7f" stroke-dasharray="5,2" d="M872.22,-580.47C902.23,-565.87 934.52,-550.15 964.9,-535.36"/>
<text text-anchor="start" x="939.9" y="-524.16" font-family="Times New Roman,serif" font-size="14.00">0..N</text>
<text text-anchor="start" x="872.22" y="-569.27" font-family="Times New Roman,serif" font-size="14.00">{0,1}</text>
</g>
<!-- cell -->
<g id="node4" class="node">
<title>cell</title>
<polygon fill="none" stroke="black" points="323,-687 323,-715 549,-715 549,-687 323,-687"/>
<text text-anchor="start" x="422" y="-698.2" font-family="Helvetica,sans-Serif" font-weight="bold" font-size="16.00">cell</text>
<polygon fill="none" stroke="black" points="323,-662 323,-687 549,-687 549,-662 323,-662"/>
<text text-anchor="start" x="328" y="-671.8" font-family="Helvetica,sans-Serif" text-decoration="underline" font-size="14.00">id</text>
<text text-anchor="start" x="339" y="-671.8" font-family="Helvetica,sans-Serif" font-size="14.00"> [INTEGER]</text>
<text text-anchor="start" x="412" y="-671.8" font-family="Helvetica,sans-Serif" font-size="14.00"> NOT NULL</text>
<polygon fill="none" stroke="black" points="323,-637 323,-662 549,-662 549,-637 323,-637"/>
<text text-anchor="start" x="328" y="-646.8" font-family="Helvetica,sans-Serif" font-size="14.00">attributes</text>
<text text-anchor="start" x="384" y="-646.8" font-family="Helvetica,sans-Serif" font-size="14.00"> [JSON]</text>
<polygon fill="none" stroke="black" points="323,-612 323,-637 549,-637 549,-612 323,-612"/>
<text text-anchor="start" x="328" y="-621.8" font-family="Helvetica,sans-Serif" font-size="14.00">name</text>
<text text-anchor="start" x="363" y="-621.8" font-family="Helvetica,sans-Serif" font-size="14.00"> [VARCHAR]</text>
<text text-anchor="start" x="440" y="-621.8" font-family="Helvetica,sans-Serif" font-size="14.00"> NOT NULL</text>
<polygon fill="none" stroke="black" points="323,-587 323,-612 549,-612 549,-587 323,-587"/>
<text text-anchor="start" x="328" y="-596.8" font-family="Helvetica,sans-Serif" font-size="14.00">project_id</text>
<text text-anchor="start" x="387" y="-596.8" font-family="Helvetica,sans-Serif" font-size="14.00"> [INTEGER]</text>
<text text-anchor="start" x="460" y="-596.8" font-family="Helvetica,sans-Serif" font-size="14.00"> NOT NULL</text>
<polygon fill="none" stroke="black" points="323,-562 323,-587 549,-587 549,-562 323,-562"/>
<text text-anchor="start" x="328" y="-571.8" font-family="Helvetica,sans-Serif" font-size="14.00">timestamp</text>
<text text-anchor="start" x="392" y="-571.8" font-family="Helvetica,sans-Serif" font-size="14.00"> [DATETIME]</text>
<text text-anchor="start" x="472" y="-571.8" font-family="Helvetica,sans-Serif" font-size="14.00"> NOT NULL</text>
</g>
<!-- cell&#45;&#45;device -->
<g id="edge3" class="edge">
<title>cell&#45;&#45;device</title>
<path fill="none" stroke="#7f7f7f" stroke-dasharray="5,2" d="M557.12,-632.41C581,-632.19 606.07,-632.2 629.94,-632.42"/>
<text text-anchor="start" x="604.94" y="-621.22" font-family="Times New Roman,serif" font-size="14.00">0..N</text>
<text text-anchor="start" x="557.12" y="-621.21" font-family="Times New Roman,serif" font-size="14.00">1</text>
</g>
<!-- cell&#45;&#45;device -->
<g id="edge4" class="edge">
<title>cell&#45;&#45;device</title>
<path fill="none" stroke="#7f7f7f" stroke-dasharray="5,2" d="M557.12,-645.59C581,-645.81 606.07,-645.8 629.94,-645.58"/>
<text text-anchor="start" x="604.94" y="-649.38" font-family="Times New Roman,serif" font-size="14.00">0..N</text>
<text text-anchor="start" x="557.12" y="-649.39" font-family="Times New Roman,serif" font-size="14.00">{0,1}</text>
</g>
<!-- project -->
<g id="node5" class="node">
<title>project</title>
<polygon fill="none" stroke="black" points="8,-560 8,-588 234,-588 234,-560 8,-560"/>
<text text-anchor="start" x="94" y="-571.2" font-family="Helvetica,sans-Serif" font-weight="bold" font-size="16.00">project</text>
<polygon fill="none" stroke="black" points="8,-535 8,-560 234,-560 234,-535 8,-535"/>
<text text-anchor="start" x="13" y="-544.8" font-family="Helvetica,sans-Serif" text-decoration="underline" font-size="14.00">id</text>
<text text-anchor="start" x="24" y="-544.8" font-family="Helvetica,sans-Serif" font-size="14.00"> [INTEGER]</text>
<text text-anchor="start" x="97" y="-544.8" font-family="Helvetica,sans-Serif" font-size="14.00"> NOT NULL</text>
<polygon fill="none" stroke="black" points="8,-510 8,-535 234,-535 234,-510 8,-510"/>
<text text-anchor="start" x="13" y="-519.8" font-family="Helvetica,sans-Serif" font-size="14.00">description</text>
<text text-anchor="start" x="79" y="-519.8" font-family="Helvetica,sans-Serif" font-size="14.00"> [VARCHAR]</text>
<polygon fill="none" stroke="black" points="8,-485 8,-510 234,-510 234,-485 8,-485"/>
<text text-anchor="start" x="13" y="-494.8" font-family="Helvetica,sans-Serif" font-size="14.00">name</text>
<text text-anchor="start" x="48" y="-494.8" font-family="Helvetica,sans-Serif" font-size="14.00"> [VARCHAR]</text>
<text text-anchor="start" x="125" y="-494.8" font-family="Helvetica,sans-Serif" font-size="14.00"> NOT NULL</text>
<polygon fill="none" stroke="black" points="8,-460 8,-485 234,-485 234,-460 8,-460"/>
<text text-anchor="start" x="13" y="-469.8" font-family="Helvetica,sans-Serif" font-size="14.00">suffix</text>
<text text-anchor="start" x="45" y="-469.8" font-family="Helvetica,sans-Serif" font-size="14.00"> [VARCHAR]</text>
<text text-anchor="start" x="122" y="-469.8" font-family="Helvetica,sans-Serif" font-size="14.00"> NOT NULL</text>
<polygon fill="none" stroke="black" points="8,-435 8,-460 234,-460 234,-435 8,-435"/>
<text text-anchor="start" x="13" y="-444.8" font-family="Helvetica,sans-Serif" font-size="14.00">timestamp</text>
<text text-anchor="start" x="77" y="-444.8" font-family="Helvetica,sans-Serif" font-size="14.00"> [DATETIME]</text>
<text text-anchor="start" x="157" y="-444.8" font-family="Helvetica,sans-Serif" font-size="14.00"> NOT NULL</text>
</g>
<!-- project&#45;&#45;cell -->
<g id="edge5" class="edge">
<title>project&#45;&#45;cell</title>
<path fill="none" stroke="#7f7f7f" stroke-dasharray="5,2" d="M242.12,-560.74C266,-570.43 291.07,-580.6 314.94,-590.29"/>
<text text-anchor="start" x="289.94" y="-579.09" font-family="Times New Roman,serif" font-size="14.00">0..N</text>
<text text-anchor="start" x="242.12" y="-549.54" font-family="Times New Roman,serif" font-size="14.00">1</text>
</g>
<!-- wafer -->
<g id="node6" class="node">
<title>wafer</title>
<polygon fill="none" stroke="black" points="323,-458 323,-486 549,-486 549,-458 323,-458"/>
<text text-anchor="start" x="414.5" y="-469.2" font-family="Helvetica,sans-Serif" font-weight="bold" font-size="16.00">wafer</text>
<polygon fill="none" stroke="black" points="323,-433 323,-458 549,-458 549,-433 323,-433"/>
<text text-anchor="start" x="328" y="-442.8" font-family="Helvetica,sans-Serif" text-decoration="underline" font-size="14.00">id</text>
<text text-anchor="start" x="339" y="-442.8" font-family="Helvetica,sans-Serif" font-size="14.00"> [INTEGER]</text>
<text text-anchor="start" x="412" y="-442.8" font-family="Helvetica,sans-Serif" font-size="14.00"> NOT NULL</text>
<polygon fill="none" stroke="black" points="323,-408 323,-433 549,-433 549,-408 323,-408"/>
<text text-anchor="start" x="328" y="-417.8" font-family="Helvetica,sans-Serif" font-size="14.00">attributes</text>
<text text-anchor="start" x="384" y="-417.8" font-family="Helvetica,sans-Serif" font-size="14.00"> [JSON]</text>
<polygon fill="none" stroke="black" points="323,-383 323,-408 549,-408 549,-383 323,-383"/>
<text text-anchor="start" x="328" y="-392.8" font-family="Helvetica,sans-Serif" font-size="14.00">description</text>
<text text-anchor="start" x="394" y="-392.8" font-family="Helvetica,sans-Serif" font-size="14.00"> [VARCHAR]</text>
<polygon fill="none" stroke="black" points="323,-358 323,-383 549,-383 549,-358 323,-358"/>
<text text-anchor="start" x="328" y="-367.8" font-family="Helvetica,sans-Serif" font-size="14.00">lot_name</text>
<text text-anchor="start" x="385" y="-367.8" font-family="Helvetica,sans-Serif" font-size="14.00"> [VARCHAR]</text>
<polygon fill="none" stroke="black" points="323,-333 323,-358 549,-358 549,-333 323,-333"/>
<text text-anchor="start" x="328" y="-342.8" font-family="Helvetica,sans-Serif" font-size="14.00">name</text>
<text text-anchor="start" x="363" y="-342.8" font-family="Helvetica,sans-Serif" font-size="14.00"> [VARCHAR]</text>
<text text-anchor="start" x="440" y="-342.8" font-family="Helvetica,sans-Serif" font-size="14.00"> NOT NULL</text>
<polygon fill="none" stroke="black" points="323,-308 323,-333 549,-333 549,-308 323,-308"/>
<text text-anchor="start" x="328" y="-317.8" font-family="Helvetica,sans-Serif" font-size="14.00">project_id</text>
<text text-anchor="start" x="387" y="-317.8" font-family="Helvetica,sans-Serif" font-size="14.00"> [INTEGER]</text>
<text text-anchor="start" x="460" y="-317.8" font-family="Helvetica,sans-Serif" font-size="14.00"> NOT NULL</text>
<polygon fill="none" stroke="black" points="323,-283 323,-308 549,-308 549,-283 323,-283"/>
<text text-anchor="start" x="328" y="-292.8" font-family="Helvetica,sans-Serif" font-size="14.00">timestamp</text>
<text text-anchor="start" x="392" y="-292.8" font-family="Helvetica,sans-Serif" font-size="14.00"> [DATETIME]</text>
<text text-anchor="start" x="472" y="-292.8" font-family="Helvetica,sans-Serif" font-size="14.00"> NOT NULL</text>
</g>
<!-- project&#45;&#45;wafer -->
<g id="edge6" class="edge">
<title>project&#45;&#45;wafer</title>
<path fill="none" stroke="#7f7f7f" stroke-dasharray="5,2" d="M242.12,-463.26C266,-453.57 291.07,-443.4 314.94,-433.71"/>
<text text-anchor="start" x="289.94" y="-422.51" font-family="Times New Roman,serif" font-size="14.00">0..N</text>
<text text-anchor="start" x="242.12" y="-452.06" font-family="Times New Roman,serif" font-size="14.00">1</text>
</g>
<!-- wafer&#45;&#45;analysis -->
<g id="edge9" class="edge">
<title>wafer&#45;&#45;analysis</title>
<path fill="none" stroke="#7f7f7f" stroke-dasharray="5,2" d="M557.09,-313.82C580.66,-302.08 605.64,-291.12 630,-283 681.23,-265.93 696,-264 750,-264 750,-264 750,-264 1095,-264 1167.79,-264 1248.61,-267.78 1315.79,-271.98"/>
<text text-anchor="start" x="1290.79" y="-260.78" font-family="Times New Roman,serif" font-size="14.00">0..N</text>
<text text-anchor="start" x="557.09" y="-302.62" font-family="Times New Roman,serif" font-size="14.00">{0,1}</text>
</g>
<!-- die -->
<g id="node7" class="node">
<title>die</title>
<polygon fill="none" stroke="black" points="638,-446 638,-474 864,-474 864,-446 638,-446"/>
<text text-anchor="start" x="739" y="-457.2" font-family="Helvetica,sans-Serif" font-weight="bold" font-size="16.00">die</text>
<polygon fill="none" stroke="black" points="638,-421 638,-446 864,-446 864,-421 638,-421"/>
<text text-anchor="start" x="643" y="-430.8" font-family="Helvetica,sans-Serif" text-decoration="underline" font-size="14.00">id</text>
<text text-anchor="start" x="654" y="-430.8" font-family="Helvetica,sans-Serif" font-size="14.00"> [INTEGER]</text>
<text text-anchor="start" x="727" y="-430.8" font-family="Helvetica,sans-Serif" font-size="14.00"> NOT NULL</text>
<polygon fill="none" stroke="black" points="638,-396 638,-421 864,-421 864,-396 638,-396"/>
<text text-anchor="start" x="643" y="-405.8" font-family="Helvetica,sans-Serif" font-size="14.00">attributes</text>
<text text-anchor="start" x="699" y="-405.8" font-family="Helvetica,sans-Serif" font-size="14.00"> [JSON]</text>
<polygon fill="none" stroke="black" points="638,-371 638,-396 864,-396 864,-371 638,-371"/>
<text text-anchor="start" x="643" y="-380.8" font-family="Helvetica,sans-Serif" font-size="14.00">timestamp</text>
<text text-anchor="start" x="707" y="-380.8" font-family="Helvetica,sans-Serif" font-size="14.00"> [DATETIME]</text>
<text text-anchor="start" x="787" y="-380.8" font-family="Helvetica,sans-Serif" font-size="14.00"> NOT NULL</text>
<polygon fill="none" stroke="black" points="638,-346 638,-371 864,-371 864,-346 638,-346"/>
<text text-anchor="start" x="643" y="-355.8" font-family="Helvetica,sans-Serif" font-size="14.00">wafer_id</text>
<text text-anchor="start" x="695" y="-355.8" font-family="Helvetica,sans-Serif" font-size="14.00"> [INTEGER]</text>
<text text-anchor="start" x="768" y="-355.8" font-family="Helvetica,sans-Serif" font-size="14.00"> NOT NULL</text>
<polygon fill="none" stroke="black" points="638,-321 638,-346 864,-346 864,-321 638,-321"/>
<text text-anchor="start" x="643" y="-330.8" font-family="Helvetica,sans-Serif" font-size="14.00">x</text>
<text text-anchor="start" x="650" y="-330.8" font-family="Helvetica,sans-Serif" font-size="14.00"> [INTEGER]</text>
<text text-anchor="start" x="723" y="-330.8" font-family="Helvetica,sans-Serif" font-size="14.00"> NOT NULL</text>
<polygon fill="none" stroke="black" points="638,-296 638,-321 864,-321 864,-296 638,-296"/>
<text text-anchor="start" x="643" y="-305.8" font-family="Helvetica,sans-Serif" font-size="14.00">y</text>
<text text-anchor="start" x="650" y="-305.8" font-family="Helvetica,sans-Serif" font-size="14.00"> [INTEGER]</text>
<text text-anchor="start" x="723" y="-305.8" font-family="Helvetica,sans-Serif" font-size="14.00"> NOT NULL</text>
</g>
<!-- wafer&#45;&#45;die -->
<g id="edge10" class="edge">
<title>wafer&#45;&#45;die</title>
<path fill="none" stroke="#7f7f7f" stroke-dasharray="5,2" d="M557.12,-385C581,-385 606.07,-385 629.94,-385"/>
<text text-anchor="start" x="604.94" y="-373.8" font-family="Times New Roman,serif" font-size="14.00">0..N</text>
<text text-anchor="start" x="557.12" y="-373.8" font-family="Times New Roman,serif" font-size="14.00">1</text>
</g>
<!-- die&#45;&#45;analysis -->
<g id="edge7" class="edge">
<title>die&#45;&#45;analysis</title>
<path fill="none" stroke="#7f7f7f" stroke-dasharray="5,2" d="M872.26,-340.07C896.08,-332.61 921.11,-325.76 945,-321 1068.56,-296.36 1211.6,-287.31 1315.78,-284.17"/>
<text text-anchor="start" x="1290.78" y="-287.97" font-family="Times New Roman,serif" font-size="14.00">0..N</text>
<text text-anchor="start" x="872.26" y="-328.87" font-family="Times New Roman,serif" font-size="14.00">{0,1}</text>
</g>
<!-- die&#45;&#45;device_data -->
<g id="edge8" class="edge">
<title>die&#45;&#45;device_data</title>
<path fill="none" stroke="#7f7f7f" stroke-dasharray="5,2" d="M872.22,-416.03C902.23,-423.77 934.52,-432.1 964.9,-439.94"/>
<text text-anchor="start" x="939.9" y="-428.74" font-family="Times New Roman,serif" font-size="14.00">0..N</text>
<text text-anchor="start" x="872.22" y="-404.83" font-family="Times New Roman,serif" font-size="14.00">{0,1}</text>
</g>
<!-- analysis_function -->
<g id="node8" class="node">
<title>analysis_function</title>
<polygon fill="none" stroke="black" points="953,-204 953,-232 1235,-232 1235,-204 953,-204"/>
<text text-anchor="start" x="1026" y="-215.2" font-family="Helvetica,sans-Serif" font-weight="bold" font-size="16.00">analysis_function</text>
<polygon fill="none" stroke="black" points="953,-179 953,-204 1235,-204 1235,-179 953,-179"/>
<text text-anchor="start" x="958" y="-188.8" font-family="Helvetica,sans-Serif" text-decoration="underline" font-size="14.00">id</text>
<text text-anchor="start" x="969" y="-188.8" font-family="Helvetica,sans-Serif" font-size="14.00"> [INTEGER]</text>
<text text-anchor="start" x="1042" y="-188.8" font-family="Helvetica,sans-Serif" font-size="14.00"> NOT NULL</text>
<polygon fill="none" stroke="black" points="953,-154 953,-179 1235,-179 1235,-154 953,-154"/>
<text text-anchor="start" x="958" y="-163.8" font-family="Helvetica,sans-Serif" font-size="14.00">function_path</text>
<text text-anchor="start" x="1040" y="-163.8" font-family="Helvetica,sans-Serif" font-size="14.00"> [VARCHAR]</text>
<text text-anchor="start" x="1117" y="-163.8" font-family="Helvetica,sans-Serif" font-size="14.00"> NOT NULL</text>
<polygon fill="none" stroke="black" points="953,-129 953,-154 1235,-154 1235,-129 953,-129"/>
<text text-anchor="start" x="958" y="-138.8" font-family="Helvetica,sans-Serif" font-size="14.00">hash</text>
<text text-anchor="start" x="988" y="-138.8" font-family="Helvetica,sans-Serif" font-size="14.00"> [VARCHAR]</text>
<text text-anchor="start" x="1065" y="-138.8" font-family="Helvetica,sans-Serif" font-size="14.00"> NOT NULL</text>
<polygon fill="none" stroke="black" points="953,-104 953,-129 1235,-129 1235,-104 953,-104"/>
<text text-anchor="start" x="958" y="-113.8" font-family="Helvetica,sans-Serif" font-size="14.00">name</text>
<text text-anchor="start" x="993" y="-113.8" font-family="Helvetica,sans-Serif" font-size="14.00"> [VARCHAR]</text>
<text text-anchor="start" x="1070" y="-113.8" font-family="Helvetica,sans-Serif" font-size="14.00"> NOT NULL</text>
<polygon fill="none" stroke="black" points="953,-79 953,-104 1235,-104 1235,-79 953,-79"/>
<text text-anchor="start" x="958" y="-88.8" font-family="Helvetica,sans-Serif" font-size="14.00">target_model</text>
<text text-anchor="start" x="1038" y="-88.8" font-family="Helvetica,sans-Serif" font-size="14.00"> [VARCHAR(11)]</text>
<text text-anchor="start" x="1138" y="-88.8" font-family="Helvetica,sans-Serif" font-size="14.00"> NOT NULL</text>
<polygon fill="none" stroke="black" points="953,-54 953,-79 1235,-79 1235,-54 953,-54"/>
<text text-anchor="start" x="958" y="-63.8" font-family="Helvetica,sans-Serif" font-size="14.00">test_target_model_id</text>
<text text-anchor="start" x="1085" y="-63.8" font-family="Helvetica,sans-Serif" font-size="14.00"> [INTEGER]</text>
<text text-anchor="start" x="1158" y="-63.8" font-family="Helvetica,sans-Serif" font-size="14.00"> NOT NULL</text>
<polygon fill="none" stroke="black" points="953,-29 953,-54 1235,-54 1235,-29 953,-29"/>
<text text-anchor="start" x="958" y="-38.8" font-family="Helvetica,sans-Serif" font-size="14.00">timestamp</text>
<text text-anchor="start" x="1022" y="-38.8" font-family="Helvetica,sans-Serif" font-size="14.00"> [DATETIME]</text>
<text text-anchor="start" x="1102" y="-38.8" font-family="Helvetica,sans-Serif" font-size="14.00"> NOT NULL</text>
<polygon fill="none" stroke="black" points="953,-4 953,-29 1235,-29 1235,-4 953,-4"/>
<text text-anchor="start" x="958" y="-13.8" font-family="Helvetica,sans-Serif" font-size="14.00">version</text>
<text text-anchor="start" x="1002" y="-13.8" font-family="Helvetica,sans-Serif" font-size="14.00"> [INTEGER]</text>
<text text-anchor="start" x="1075" y="-13.8" font-family="Helvetica,sans-Serif" font-size="14.00"> NOT NULL</text>
</g>
<!-- analysis_function&#45;&#45;analysis -->
<g id="edge11" class="edge">
<title>analysis_function&#45;&#45;analysis</title>
<path fill="none" stroke="#7f7f7f" stroke-dasharray="5,2" d="M1243.01,-184.64C1267.05,-195.46 1291.93,-206.66 1315.91,-217.46"/>
<text text-anchor="start" x="1290.91" y="-206.26" font-family="Times New Roman,serif" font-size="14.00">0..N</text>
<text text-anchor="start" x="1243.01" y="-173.44" font-family="Times New Roman,serif" font-size="14.00">1</text>
</g>
</g>
</svg>
